<?xml version="1.0"?><svg width="640" height="480" xmlns="http://www.w3.org/2000/svg">
 <title>Fleur de lis</title>
 <g>
  <title>Layer 1</title>
  <g id="svg_1">
   <path d="m292.799713,51.000061c0,0 -45.21875,52.1698 -45.21875,112.6875c0,36.014099 42.700653,49.234558 45.21875,121c2.518097,-71.765442 45.21875,-84.985901 45.21875,-121c0,-60.517693 -45.21875,-112.6875 -45.21875,-112.6875z" id="path3176" stroke-width="1px" fill-rule="evenodd" fill="#000000" transform="rotate(0.12979699671268463 292.7997131347464,167.84381103516887) "/>
   <path d="m286.909424,285.251068c-21.403748,-146.678497 -188.582657,-108.001389 -151.714676,-10.701874c6.506409,17.171326 38.401199,51.298065 76.297806,41.57785c40.423096,-10.368256 27.312347,-67.579315 -6.42334,-60.306c-21.834167,4.707336 -22.46228,34.970093 -1.236237,40.403076c-17.531219,4.741577 -34.137512,-34.176514 -3.167999,-49.37384c22.138184,-10.863632 66.572693,7.215332 68.777588,43.456726c8.215637,-4.575043 17.367889,-4.853455 17.466858,-5.055939z" id="path3178" stroke-width="1px" fill-rule="evenodd" fill="#000000" transform="rotate(0.12979699671268463 208.40725708009123,252.9739379882812) "/>
   <path d="m274.937927,329.437042c0,0 1.199951,8.085144 -3.28125,25.8125c-6.006287,23.760498 -27,17.46875 -27,17.46875c13.499969,13 30.657471,10.885071 40.09375,-5.34375c-9.732483,21.065735 7.59375,41.0625 7.59375,41.0625c0,0 17.326233,-19.996765 7.59375,-41.0625c9.436279,16.228821 26.593719,18.34375 40.09375,5.34375c0,0 -20.993744,6.291748 -27,-17.46875c-4.481201,-17.727356 -3.28125,-25.8125 -3.28125,-25.8125c0,0 -7.359436,2.462402 -17.40625,2.03125c-10.046814,0.431152 -17.40625,-2.03125 -17.40625,-2.03125z" id="path3184" stroke-width="1px" fill-rule="evenodd" fill="#000000" transform="rotate(0.12979699671268463 292.34417724606857,368.9370422363336) "/>
   <path d="m325.215942,308.601532c0.007751,9.245361 -14.650513,16.74231 -32.735077,16.74231c-18.084595,0 -32.742859,-7.496948 -32.735107,-16.74231c-0.007751,-9.245331 14.650513,-16.742279 32.735107,-16.742279c18.084564,0 32.742828,7.496948 32.735077,16.742279z" id="path3188" stroke-miterlimit="4" stroke-linecap="round" stroke-width="5" fill-rule="nonzero" fill="#000000" transform="rotate(0.12979699671268463 292.4808349609191,308.60156249999557) "/>
   <path d="m298.387512,285.632751c21.403717,-146.678513 188.582642,-108.001389 151.714661,-10.701843c-6.506409,17.171326 -38.401245,51.298004 -76.297821,41.577789c-40.423065,-10.368195 -27.312286,-67.579315 6.42334,-60.306c21.834137,4.707397 22.46225,34.970154 1.236237,40.403137c17.531189,4.741577 34.137512,-34.176514 3.167999,-49.373901c-22.138153,-10.863602 -66.572662,7.215332 -68.777557,43.456726c-8.215637,-4.575012 -17.36792,-4.853394 -17.466858,-5.055908z" id="path2385" stroke-width="1px" fill-rule="evenodd" fill="#000000" transform="rotate(0.12979699671268463 376.8896789550512,253.3556213378755) "/>
  </g>
  <text fill="#000000" stroke="#000000" stroke-width="0" x="298.201599" y="327.5625" id="svg_4" font-size="24" font-family="Andale Mono" text-anchor="middle" xml:space="preserve" transform="matrix(24.9244,0,0,1.78788,-7270.68,-264.696) "/>
  <text fill="#000000" stroke="#000000" stroke-width="0" x="227.201599" y="334.5625" id="svg_7" font-size="24" font-family="Georgia" text-anchor="middle" xml:space="preserve" transform="matrix(0.942186,0,0,0.966106,13.7236,10.5465) "/>
 </g>
</svg>